<svg id="Layer_1" data-name="Layer 1" xmlns="http://www.w3.org/2000/svg" viewBox="0 0 1828.26 989.71"><defs><style>.cls-1,.cls-3{fill:#f68c1e;}.cls-2{fill:#fff;}.cls-3{font-size:683.98px;font-family:MavenProMedium, Maven Pro;letter-spacing:0.04em;}.cls-4{fill:#124c9d;}.cls-5{font-size:96.53px;fill:#ed8d22;font-family:MavenProRegular, Maven Pro;letter-spacing:-0.06em;}.cls-6{letter-spacing:-0.07em;}.cls-7{letter-spacing:-0.06em;}.cls-8{letter-spacing:-0.06em;}.cls-9{letter-spacing:-0.04em;}.cls-10{letter-spacing:-0.05em;}.cls-11{letter-spacing:-0.05em;}.cls-12{letter-spacing:-0.07em;}.cls-13{letter-spacing:-0.06em;}.cls-14{letter-spacing:-0.05em;}.cls-15{letter-spacing:-0.07em;}.cls-16{letter-spacing:-0.06em;}.cls-17{letter-spacing:-0.04em;}</style></defs><rect class="cls-1" width="1828.26" height="989.71" rx="494.85"/><path class="cls-2" d="M504.6,962C251.2,962,45,755.86,45,502.46S251.2,42.9,504.6,42.9h838.54c253.4,0,459.57,206.15,459.57,459.56S1596.54,962,1343.14,962Z" transform="translate(-9.74 -7.6)"/><text class="cls-3" transform="translate(150.44 645.7) scale(0.98 1)">e</text><path class="cls-4" d="M545.9,653.3V197.68h80.47V575.92h214.9V653.3Z" transform="translate(-9.74 -7.6)"/><path class="cls-4" d="M873.63,266.05V191h82.44v75Zm1.31,387.25V312.42h80.47V653.3Z" transform="translate(-9.74 -7.6)"/><path class="cls-4" d="M1026.87,813.91V422.48q0-47,34.5-80.88t106.14-33.86a207.14,207.14,0,0,1,33.06,2.67q16.46,2.68,38.75,14a128.32,128.32,0,0,1,38.27,29.36q16,18,27.68,52.86T1317,487.19q0,83.71-40.07,128.58t-114.65,44.87a248.51,248.51,0,0,1-55-6.07V813.91Zm80.46-221.31a352.13,352.13,0,0,0,49.39,4q38.92,0,59.37-23.19t20.44-81.88q0-60-15.37-86.72t-53.65-26.69q-60.18,0-60.18,36.69Z" transform="translate(-9.74 -7.6)"/><path class="cls-4" d="M1341,541.9a118.69,118.69,0,0,1,2-21.19q2-10.83,10.37-27.18a93.56,93.56,0,0,1,22.86-28.68q14.48-12.35,42.77-21.18t66.77-8.84a401.08,401.08,0,0,1,58.72,4.66q0-65-70.79-65-56.52,0-98.23,17.35V324.42q46.3-17.34,102.8-17.34,71.54,0,109.44,37.19t37.9,107.57v92.05q0,47-34.48,80.89t-106,33.85q-74,0-109.06-34T1341,541.9Zm80.46-10.34q0,54.71,63,54.7h.66q60,0,60-51.7v-43a395.62,395.62,0,0,0-48-4.34Q1421.82,487.19,1421.5,531.56Z" transform="translate(-9.74 -7.6)"/><text class="cls-5" transform="matrix(0.96, 0, -0.19, 0.98, 266.78, 789.6)">S<tspan class="cls-6" x="48.32" y="0">i</tspan><tspan class="cls-7" x="67.31" y="0">m</tspan><tspan class="cls-8" x="147.02" y="0">pl</tspan><tspan class="cls-9" x="215.51" y="0">y </tspan><tspan class="cls-10" x="288.86" y="0">C</tspan><tspan class="cls-11" x="344.53" y="0">o</tspan><tspan class="cls-12" x="393.84" y="0">n</tspan><tspan class="cls-13" x="443.33" y="0">v</tspan><tspan class="cls-14" x="487.12" y="0">e</tspan><tspan class="cls-15" x="535.62" y="0">n</tspan><tspan class="cls-8" x="584.93" y="0">i</tspan><tspan class="cls-14" x="604.31" y="0">e</tspan><tspan class="cls-16" x="652.81" y="0">n</tspan><tspan class="cls-17" x="702.68" y="0">t</tspan></text></svg>